<?xml version="1.0" encoding="UTF-8" standalone="no"?>
<!DOCTYPE svg PUBLIC "-//W3C//DTD SVG 1.1//EN"
 "http://www.w3.org/Graphics/SVG/1.1/DTD/svg11.dtd">
<!-- Generated by graphviz version 2.43.0 (0)
 -->
<!-- Title: G Pages: 1 -->
<svg width="1425pt" height="1235pt"
 viewBox="0.00 0.00 1425.50 1235.00" xmlns="http://www.w3.org/2000/svg" xmlns:xlink="http://www.w3.org/1999/xlink">
<g id="graph0" class="graph" transform="scale(1 1) rotate(0) translate(4 1231)">
<title>G</title>
<polygon fill="white" stroke="transparent" points="-4,4 -4,-1231 1421.5,-1231 1421.5,4 -4,4"/>
<g id="clust1" class="cluster">
<title>cluster_server</title>
<polygon fill="none" stroke="black" stroke-width="2" stroke-dasharray="5,2" points="8,-96 8,-1133 658,-1133 658,-96 8,-96"/>
<text text-anchor="middle" x="333" y="-1117.8" font-family="Times,serif" font-size="14.00">Server Pi</text>
</g>
<g id="clust2" class="cluster">
<title>cluster_client</title>
<polygon fill="none" stroke="black" stroke-width="2" stroke-dasharray="5,2" points="914,-8 914,-905 1390,-905 1390,-8 914,-8"/>
<text text-anchor="middle" x="1152" y="-889.8" font-family="Times,serif" font-size="14.00">Client Pi</text>
</g>
<g id="clust3" class="cluster">
<title>cluster_lab</title>
<polygon fill="none" stroke="black" stroke-width="2" stroke-dasharray="5,2" points="666,-812.5 666,-1219 906,-1219 906,-812.5 666,-812.5"/>
<text text-anchor="middle" x="786" y="-1203.8" font-family="Times,serif" font-size="14.00">Lab Computer</text>
</g>
<!-- s_app -->
<g id="node1" class="node">
<title>s_app</title>
<g id="a_node1"><a xlink:href="https://lukas-staab.github.io/ball-and-hoop/code/src.ballandhoop.html#module-src.ballandhoop.application" xlink:title="{Start App and load config|runner.py|Application.run()}" target="_blank">
<polygon fill="none" stroke="grey" points="376,-1032.5 376,-1101.5 574,-1101.5 574,-1032.5 376,-1032.5"/>
<text text-anchor="middle" x="475" y="-1086.3" font-family="Times,serif" font-size="14.00">Start App and load config</text>
<polyline fill="none" stroke="grey" points="376,-1078.5 574,-1078.5 "/>
<text text-anchor="middle" x="475" y="-1063.3" font-family="Times,serif" font-size="14.00">runner.py</text>
<polyline fill="none" stroke="grey" points="376,-1055.5 574,-1055.5 "/>
<text text-anchor="middle" x="475" y="-1040.3" font-family="Times,serif" font-size="14.00">Application.run()</text>
</a>
</g>
</g>
<!-- s_network_start -->
<g id="node2" class="node">
<title>s_network_start</title>
<g id="a_node2"><a xlink:href="https://lukas-staab.github.io/ball-and-hoop/code/index.html#src.network.Server" xlink:title="{Init Network and wait for clients |init_network()|Server.__init__()}" target="_blank">
<polygon fill="none" stroke="grey" points="382,-433.5 382,-502.5 632,-502.5 632,-433.5 382,-433.5"/>
<text text-anchor="middle" x="507" y="-487.3" font-family="Times,serif" font-size="14.00">Init Network and wait for clients</text>
<polyline fill="none" stroke="grey" points="382,-479.5 632,-479.5 "/>
<text text-anchor="middle" x="507" y="-464.3" font-family="Times,serif" font-size="14.00">init_network()</text>
<polyline fill="none" stroke="grey" points="382,-456.5 632,-456.5 "/>
<text text-anchor="middle" x="507" y="-441.3" font-family="Times,serif" font-size="14.00">Server.__init__()</text>
</a>
</g>
</g>
<!-- s_app&#45;&gt;s_network_start -->
<g id="edge1" class="edge">
<title>s_app&#45;&gt;s_network_start</title>
<path fill="none" stroke="black" d="M488.11,-1032.48C496.95,-1006.87 507,-970.49 507,-937.5 507,-937.5 507,-937.5 507,-620 507,-583.89 507,-542.91 507,-512.77"/>
<polygon fill="black" stroke="black" points="510.5,-512.59 507,-502.59 503.5,-512.59 510.5,-512.59"/>
</g>
<!-- s_video_start -->
<g id="node5" class="node">
<title>s_video_start</title>
<g id="a_node5"><a xlink:href="https://lukas-staab.github.io/ball-and-hoop/code/src.ballandhoop.html#module-src.ballandhoop.videostream" xlink:title="{Start Camera| Videostream.__init__()}" target="_blank">
<polygon fill="none" stroke="grey" points="256.5,-913.5 256.5,-959.5 429.5,-959.5 429.5,-913.5 256.5,-913.5"/>
<text text-anchor="middle" x="343" y="-944.3" font-family="Times,serif" font-size="14.00">Start Camera</text>
<polyline fill="none" stroke="grey" points="256.5,-936.5 429.5,-936.5 "/>
<text text-anchor="middle" x="343" y="-921.3" font-family="Times,serif" font-size="14.00">Videostream.__init__()</text>
</a>
</g>
</g>
<!-- s_app&#45;&gt;s_video_start -->
<g id="edge12" class="edge">
<title>s_app&#45;&gt;s_video_start</title>
<path fill="none" stroke="black" d="M440.32,-1032.24C419.46,-1011.93 393.16,-986.33 373.16,-966.86"/>
<polygon fill="black" stroke="black" points="375.44,-964.19 365.83,-959.73 370.56,-969.21 375.44,-964.19"/>
</g>
<!-- s_workerpool -->
<g id="node10" class="node">
<title>s_workerpool</title>
<g id="a_node10"><a xlink:href="https://docs.python.org/3/library/multiprocessing.html" xlink:title="{Init Workerpool|multiprocessing.Pool()}" target="_blank">
<polygon fill="none" stroke="grey" points="312,-816 312,-862 488,-862 488,-816 312,-816"/>
<text text-anchor="middle" x="400" y="-846.8" font-family="Times,serif" font-size="14.00">Init Workerpool</text>
<polyline fill="none" stroke="grey" points="312,-839 488,-839 "/>
<text text-anchor="middle" x="400" y="-823.8" font-family="Times,serif" font-size="14.00">multiprocessing.Pool()</text>
</a>
</g>
</g>
<!-- s_app&#45;&gt;s_workerpool -->
<g id="edge8" class="edge">
<title>s_app&#45;&gt;s_workerpool</title>
<path fill="none" stroke="black" d="M469.32,-1032.48C463.43,-1001 452.96,-952.92 438,-913 432.63,-898.68 425.11,-883.58 418.18,-870.84"/>
<polygon fill="black" stroke="black" points="421.19,-869.07 413.27,-862.04 415.08,-872.48 421.19,-869.07"/>
</g>
<!-- s_network_serial_start -->
<g id="node3" class="node">
<title>s_network_serial_start</title>
<g id="a_node3"><a xlink:href="https://lukas-staab.github.io/ball-and-hoop/code/index.html#src.serial.SerialCom" xlink:title="{Init Serial to D&#45;Space|Serial.__init__()}" target="_blank">
<polygon fill="none" stroke="grey" points="327,-257.5 327,-303.5 497,-303.5 497,-257.5 327,-257.5"/>
<text text-anchor="middle" x="412" y="-288.3" font-family="Times,serif" font-size="14.00">Init Serial to D&#45;Space</text>
<polyline fill="none" stroke="grey" points="327,-280.5 497,-280.5 "/>
<text text-anchor="middle" x="412" y="-265.3" font-family="Times,serif" font-size="14.00">Serial.__init__()</text>
</a>
</g>
</g>
<!-- s_network_start&#45;&gt;s_network_serial_start -->
<g id="edge4" class="edge">
<title>s_network_start&#45;&gt;s_network_serial_start</title>
<path fill="none" stroke="black" d="M489.8,-433.41C472.23,-399.1 445.17,-346.27 428.04,-312.81"/>
<polygon fill="black" stroke="black" points="430.95,-310.82 423.27,-303.51 424.72,-314.01 430.95,-310.82"/>
</g>
<!-- s_network_send -->
<g id="node8" class="node">
<title>s_network_send</title>
<g id="a_node8"><a xlink:href="https://lukas-staab.github.io/ball-and-hoop/code/index.html#src.network.Server.send" xlink:title="{&#39;Send&#39; Message to save|&lt;pre&gt;NetworkInterface.preprocess_message()|&lt;send&gt;Server.send()}" target="_blank">
<polygon fill="none" stroke="grey" points="16.5,-246 16.5,-315 321.5,-315 321.5,-246 16.5,-246"/>
<text text-anchor="middle" x="169" y="-299.8" font-family="Times,serif" font-size="14.00">&#39;Send&#39; Message to save</text>
<polyline fill="none" stroke="grey" points="16.5,-292 321.5,-292 "/>
<text text-anchor="middle" x="169" y="-276.8" font-family="Times,serif" font-size="14.00">NetworkInterface.preprocess_message()</text>
<polyline fill="none" stroke="grey" points="16.5,-269 321.5,-269 "/>
<text text-anchor="middle" x="169" y="-253.8" font-family="Times,serif" font-size="14.00">Server.send()</text>
</a>
</g>
</g>
<!-- s_network_start&#45;&gt;s_network_send -->
<g id="edge2" class="edge">
<title>s_network_start&#45;&gt;s_network_send</title>
<path fill="none" stroke="black" d="M445.79,-433.41C387.59,-401.46 300.11,-353.45 239.12,-319.98"/>
<polygon fill="black" stroke="black" points="240.77,-316.9 230.32,-315.16 237.41,-323.04 240.77,-316.9"/>
</g>
<!-- s_network_receive -->
<g id="node9" class="node">
<title>s_network_receive</title>
<g id="a_node9"><a xlink:href="https://lukas-staab.github.io/ball-and-hoop/code/index.html#src.network.Server.run" xlink:title="{Wait for messages|Server.__init__()|Server.run()|s.recv(1024)}" target="_blank">
<polygon fill="none" stroke="grey" points="502,-234.5 502,-326.5 650,-326.5 650,-234.5 502,-234.5"/>
<text text-anchor="middle" x="576" y="-311.3" font-family="Times,serif" font-size="14.00">Wait for messages</text>
<polyline fill="none" stroke="grey" points="502,-303.5 650,-303.5 "/>
<text text-anchor="middle" x="576" y="-288.3" font-family="Times,serif" font-size="14.00">Server.__init__()</text>
<polyline fill="none" stroke="grey" points="502,-280.5 650,-280.5 "/>
<text text-anchor="middle" x="576" y="-265.3" font-family="Times,serif" font-size="14.00">Server.run()</text>
<polyline fill="none" stroke="grey" points="502,-257.5 650,-257.5 "/>
<text text-anchor="middle" x="576" y="-242.3" font-family="Times,serif" font-size="14.00">s.recv(1024)</text>
</a>
</g>
</g>
<!-- s_network_start&#45;&gt;s_network_receive -->
<g id="edge6" class="edge">
<title>s_network_start&#45;&gt;s_network_receive</title>
<path fill="none" stroke="black" d="M519.5,-433.41C529.56,-406.35 543.92,-367.76 555.64,-336.24"/>
<polygon fill="black" stroke="black" points="558.98,-337.3 559.18,-326.71 552.42,-334.86 558.98,-337.3"/>
</g>
<!-- s_network_serial_send -->
<g id="node4" class="node">
<title>s_network_serial_send</title>
<g id="a_node4"><a xlink:href="https://lukas-staab.github.io/ball-and-hoop/code/index.html#src.serial.SerialCom.write" xlink:title="{Send Serial to D&#45;Space|Serial.write()}" target="_blank">
<polygon fill="none" stroke="grey" points="405.5,-104.5 405.5,-150.5 586.5,-150.5 586.5,-104.5 405.5,-104.5"/>
<text text-anchor="middle" x="496" y="-135.3" font-family="Times,serif" font-size="14.00">Send Serial to D&#45;Space</text>
<polyline fill="none" stroke="grey" points="405.5,-127.5 586.5,-127.5 "/>
<text text-anchor="middle" x="496" y="-112.3" font-family="Times,serif" font-size="14.00">Serial.write()</text>
</a>
</g>
</g>
<!-- s_network_serial_start&#45;&gt;s_network_serial_send -->
<g id="edge5" class="edge">
<title>s_network_serial_start&#45;&gt;s_network_serial_send</title>
<path fill="none" stroke="black" d="M424.39,-257.22C438.73,-231.46 462.41,-188.88 478.59,-159.8"/>
<polygon fill="black" stroke="black" points="481.75,-161.31 483.55,-150.87 475.63,-157.91 481.75,-161.31"/>
</g>
<!-- l_pid -->
<g id="node22" class="node">
<title>l_pid</title>
<polygon fill="none" stroke="grey" points="674,-821 674,-857 898,-857 898,-821 674,-821"/>
<text text-anchor="middle" x="786" y="-835.3" font-family="Times,serif" font-size="14.00">Start Matlab Simulink Model</text>
</g>
<!-- s_network_serial_send&#45;&gt;l_pid -->
<g id="edge29" class="edge">
<title>s_network_serial_send&#45;&gt;l_pid</title>
<path fill="none" stroke="black" d="M560.53,-150.58C614.25,-173.54 682,-215.24 682,-279.5 682,-698.5 682,-698.5 682,-698.5 682,-747.03 722.95,-789.58 753.46,-814.55"/>
<polygon fill="black" stroke="black" points="751.34,-817.34 761.35,-820.82 755.7,-811.86 751.34,-817.34"/>
</g>
<!-- s_video_get_pic -->
<g id="node6" class="node">
<title>s_video_get_pic</title>
<g id="a_node6"><a xlink:href="https://lukas-staab.github.io/ball-and-hoop/code/src.ballandhoop.html#src.ballandhoop.videostream.VideoStream.__next__" xlink:title="{Recieve picture| Videostream.__next__()}" target="_blank">
<polygon fill="none" stroke="grey" points="203,-739.5 203,-785.5 383,-785.5 383,-739.5 203,-739.5"/>
<text text-anchor="middle" x="293" y="-770.3" font-family="Times,serif" font-size="14.00">Recieve picture</text>
<polyline fill="none" stroke="grey" points="203,-762.5 383,-762.5 "/>
<text text-anchor="middle" x="293" y="-747.3" font-family="Times,serif" font-size="14.00">Videostream.__next__()</text>
</a>
</g>
</g>
<!-- s_video_start&#45;&gt;s_video_get_pic -->
<g id="edge13" class="edge">
<title>s_video_start&#45;&gt;s_video_get_pic</title>
<path fill="none" stroke="black" d="M308.81,-913.17C306.57,-910.65 304.58,-907.92 303,-905 284.69,-871.07 285.03,-825.73 288.06,-795.62"/>
<polygon fill="black" stroke="black" points="291.54,-795.98 289.22,-785.64 284.59,-795.17 291.54,-795.98"/>
</g>
<!-- s_worker_dispatch -->
<g id="node11" class="node">
<title>s_worker_dispatch</title>
<g id="a_node11"><a xlink:href="https://lukas-staab.github.io/ball-and-hoop/code/src.ballandhoop.html#src.ballandhoop.hoop.Hoop.find_ball_async" xlink:title="{Dispatch Worker| pool.apply_async()|hoop.find_ball_async()}" target="_blank">
<polygon fill="none" stroke="grey" points="206.5,-586.5 206.5,-655.5 379.5,-655.5 379.5,-586.5 206.5,-586.5"/>
<text text-anchor="middle" x="293" y="-640.3" font-family="Times,serif" font-size="14.00">Dispatch Worker</text>
<polyline fill="none" stroke="grey" points="206.5,-632.5 379.5,-632.5 "/>
<text text-anchor="middle" x="293" y="-617.3" font-family="Times,serif" font-size="14.00">pool.apply_async()</text>
<polyline fill="none" stroke="grey" points="206.5,-609.5 379.5,-609.5 "/>
<text text-anchor="middle" x="293" y="-594.3" font-family="Times,serif" font-size="14.00">hoop.find_ball_async()</text>
</a>
</g>
</g>
<!-- s_video_get_pic&#45;&gt;s_worker_dispatch -->
<g id="edge14" class="edge">
<title>s_video_get_pic&#45;&gt;s_worker_dispatch</title>
<path fill="none" stroke="black" d="M293,-739.4C293,-719.7 293,-690.29 293,-665.84"/>
<polygon fill="black" stroke="black" points="296.5,-665.71 293,-655.71 289.5,-665.71 296.5,-665.71"/>
</g>
<!-- s_find_ball -->
<g id="node7" class="node">
<title>s_find_ball</title>
<g id="a_node7"><a xlink:href="https://lukas-staab.github.io/ball-and-hoop/code/src.ballandhoop.html#src.ballandhoop.hoop.Hoop.find_ball" xlink:title="{Find ball and calc angle in given frame|hoop.find_ball()}" target="_blank">
<polygon fill="none" stroke="grey" points="61,-445 61,-491 355,-491 355,-445 61,-445"/>
<text text-anchor="middle" x="208" y="-475.8" font-family="Times,serif" font-size="14.00">Find ball and calc angle in given frame</text>
<polyline fill="none" stroke="grey" points="61,-468 355,-468 "/>
<text text-anchor="middle" x="208" y="-452.8" font-family="Times,serif" font-size="14.00">hoop.find_ball()</text>
</a>
</g>
</g>
<!-- s_find_ball&#45;&gt;s_network_send -->
<g id="edge11" class="edge">
<title>s_find_ball&#45;&gt;s_network_send</title>
<path fill="none" stroke="black" d="M203.37,-444.99C197.19,-415.6 186.11,-362.89 178.2,-325.26"/>
<polygon fill="black" stroke="black" points="181.54,-324.15 176.06,-315.08 174.69,-325.59 181.54,-324.15"/>
</g>
<!-- s_network_send&#45;&gt;s_network_serial_send -->
<g id="edge3" class="edge">
<title>s_network_send&#45;&gt;s_network_serial_send</title>
<path fill="none" stroke="black" d="M241.57,-245.99C300.98,-218.56 383.87,-180.28 438.69,-154.96"/>
<polygon fill="black" stroke="black" points="440.3,-158.07 447.91,-150.7 437.37,-151.72 440.3,-158.07"/>
</g>
<!-- s_network_receive&#45;&gt;s_network_serial_send -->
<g id="edge7" class="edge">
<title>s_network_receive&#45;&gt;s_network_serial_send</title>
<path fill="none" stroke="black" d="M552,-234.2C539.25,-210.13 523.9,-181.17 512.5,-159.65"/>
<polygon fill="black" stroke="black" points="515.5,-157.82 507.72,-150.63 509.31,-161.1 515.5,-157.82"/>
</g>
<!-- s_workerpool&#45;&gt;s_worker_dispatch -->
<g id="edge9" class="edge">
<title>s_workerpool&#45;&gt;s_worker_dispatch</title>
<path fill="none" stroke="black" d="M401.07,-815.86C401.27,-795.18 399.48,-763.86 389,-739 377.09,-710.75 356.1,-683.95 336.78,-663.14"/>
<polygon fill="black" stroke="black" points="339.18,-660.59 329.75,-655.76 334.11,-665.42 339.18,-660.59"/>
</g>
<!-- s_worker_dispatch&#45;&gt;s_find_ball -->
<g id="edge10" class="edge">
<title>s_worker_dispatch&#45;&gt;s_find_ball</title>
<path fill="none" stroke="black" d="M274.14,-586.49C259.59,-560.64 239.62,-525.17 225.44,-499.98"/>
<polygon fill="black" stroke="black" points="228.45,-498.2 220.5,-491.2 222.35,-501.64 228.45,-498.2"/>
</g>
<!-- c_app -->
<g id="node12" class="node">
<title>c_app</title>
<g id="a_node12"><a xlink:href="https://lukas-staab.github.io/ball-and-hoop/code/src.ballandhoop.html#module-src.ballandhoop.application" xlink:title="{Start App and load config|runner.py|Application.run()}" target="_blank">
<polygon fill="none" stroke="grey" points="997,-804.5 997,-873.5 1195,-873.5 1195,-804.5 997,-804.5"/>
<text text-anchor="middle" x="1096" y="-858.3" font-family="Times,serif" font-size="14.00">Start App and load config</text>
<polyline fill="none" stroke="grey" points="997,-850.5 1195,-850.5 "/>
<text text-anchor="middle" x="1096" y="-835.3" font-family="Times,serif" font-size="14.00">runner.py</text>
<polyline fill="none" stroke="grey" points="997,-827.5 1195,-827.5 "/>
<text text-anchor="middle" x="1096" y="-812.3" font-family="Times,serif" font-size="14.00">Application.run()</text>
</a>
</g>
</g>
<!-- c_network_start -->
<g id="node13" class="node">
<title>c_network_start</title>
<g id="a_node13"><a xlink:href="https://lukas-staab.github.io/ball-and-hoop/code/index.html#src.network.Client" xlink:title="{Init Network and Connect to Server|init_network()|Client.__init__()}" target="_blank">
<polygon fill="none" stroke="grey" points="922,-586.5 922,-655.5 1194,-655.5 1194,-586.5 922,-586.5"/>
<text text-anchor="middle" x="1058" y="-640.3" font-family="Times,serif" font-size="14.00">Init Network and Connect to Server</text>
<polyline fill="none" stroke="grey" points="922,-632.5 1194,-632.5 "/>
<text text-anchor="middle" x="1058" y="-617.3" font-family="Times,serif" font-size="14.00">init_network()</text>
<polyline fill="none" stroke="grey" points="922,-609.5 1194,-609.5 "/>
<text text-anchor="middle" x="1058" y="-594.3" font-family="Times,serif" font-size="14.00">Client.__init__()</text>
</a>
</g>
</g>
<!-- c_app&#45;&gt;c_network_start -->
<g id="edge15" class="edge">
<title>c_app&#45;&gt;c_network_start</title>
<path fill="none" stroke="black" d="M1090.06,-804.25C1083.48,-766.84 1072.85,-706.4 1065.65,-665.47"/>
<polygon fill="black" stroke="black" points="1069.08,-664.76 1063.9,-655.51 1062.18,-665.97 1069.08,-664.76"/>
</g>
<!-- c_video_start -->
<g id="node14" class="node">
<title>c_video_start</title>
<g id="a_node14"><a xlink:href="https://lukas-staab.github.io/ball-and-hoop/code/src.ballandhoop.html#module-src.ballandhoop.videostream" xlink:title="{Start Camera| Videostream.__init__()}" target="_blank">
<polygon fill="none" stroke="grey" points="1092.5,-674.5 1092.5,-720.5 1265.5,-720.5 1265.5,-674.5 1092.5,-674.5"/>
<text text-anchor="middle" x="1179" y="-705.3" font-family="Times,serif" font-size="14.00">Start Camera</text>
<polyline fill="none" stroke="grey" points="1092.5,-697.5 1265.5,-697.5 "/>
<text text-anchor="middle" x="1179" y="-682.3" font-family="Times,serif" font-size="14.00">Videostream.__init__()</text>
</a>
</g>
</g>
<!-- c_app&#45;&gt;c_video_start -->
<g id="edge21" class="edge">
<title>c_app&#45;&gt;c_video_start</title>
<path fill="none" stroke="black" d="M1116.09,-804.23C1129.67,-781.41 1147.46,-751.51 1160.65,-729.34"/>
<polygon fill="black" stroke="black" points="1163.72,-731.03 1165.82,-720.65 1157.7,-727.45 1163.72,-731.03"/>
</g>
<!-- c_workerpool -->
<g id="node18" class="node">
<title>c_workerpool</title>
<g id="a_node18"><a xlink:href="https://docs.python.org/3/library/multiprocessing.html" xlink:title="{Init Workerpool|multiprocessing.Pool()}" target="_blank">
<polygon fill="none" stroke="grey" points="1206,-598 1206,-644 1382,-644 1382,-598 1206,-598"/>
<text text-anchor="middle" x="1294" y="-628.8" font-family="Times,serif" font-size="14.00">Init Workerpool</text>
<polyline fill="none" stroke="grey" points="1206,-621 1382,-621 "/>
<text text-anchor="middle" x="1294" y="-605.8" font-family="Times,serif" font-size="14.00">multiprocessing.Pool()</text>
</a>
</g>
</g>
<!-- c_app&#45;&gt;c_workerpool -->
<g id="edge17" class="edge">
<title>c_app&#45;&gt;c_workerpool</title>
<path fill="none" stroke="black" d="M1174.7,-804.38C1210.66,-785.09 1250.6,-757.38 1275,-721 1288.12,-701.44 1292.69,-675.1 1294.08,-654.5"/>
<polygon fill="black" stroke="black" points="1297.59,-654.47 1294.55,-644.32 1290.6,-654.15 1297.59,-654.47"/>
</g>
<!-- c_network_start&#45;&gt;s_network_start -->
<g id="edge31" class="edge">
<title>c_network_start&#45;&gt;s_network_start</title>
<path fill="none" stroke="black" d="M935.72,-586.49C847.77,-562.39 729.28,-529.91 639.15,-505.22"/>
<polygon fill="black" stroke="black" points="639.99,-501.82 629.42,-502.55 638.14,-508.57 639.99,-501.82"/>
</g>
<!-- c_network_send -->
<g id="node17" class="node">
<title>c_network_send</title>
<g id="a_node17"><a xlink:href="https://lukas-staab.github.io/ball-and-hoop/code/index.html#src.network.Client.send" xlink:title="{Send Message to Server|&lt;pre&gt;NetworkInterface.preprocess_message()|&lt;send&gt;Client.send()}" target="_blank">
<polygon fill="none" stroke="grey" points="996.5,-16.5 996.5,-85.5 1301.5,-85.5 1301.5,-16.5 996.5,-16.5"/>
<text text-anchor="middle" x="1149" y="-70.3" font-family="Times,serif" font-size="14.00">Send Message to Server</text>
<polyline fill="none" stroke="grey" points="996.5,-62.5 1301.5,-62.5 "/>
<text text-anchor="middle" x="1149" y="-47.3" font-family="Times,serif" font-size="14.00">NetworkInterface.preprocess_message()</text>
<polyline fill="none" stroke="grey" points="996.5,-39.5 1301.5,-39.5 "/>
<text text-anchor="middle" x="1149" y="-24.3" font-family="Times,serif" font-size="14.00">Client.send()</text>
</a>
</g>
</g>
<!-- c_network_start&#45;&gt;c_network_send -->
<g id="edge16" class="edge">
<title>c_network_start&#45;&gt;c_network_send</title>
<path fill="none" stroke="black" d="M1058,-586.41C1058,-555.81 1058,-509.37 1058,-469 1058,-469 1058,-469 1058,-191.5 1058,-154.16 1081.16,-118.99 1104.11,-93.31"/>
<polygon fill="black" stroke="black" points="1106.97,-95.37 1111.2,-85.65 1101.84,-90.61 1106.97,-95.37"/>
</g>
<!-- c_video_get_pic -->
<g id="node15" class="node">
<title>c_video_get_pic</title>
<g id="a_node15"><a xlink:href="https://lukas-staab.github.io/ball-and-hoop/code/src.ballandhoop.html#src.ballandhoop.videostream.VideoStream.__next__" xlink:title="{Recieve picture| Videostream.__next__()}" target="_blank">
<polygon fill="none" stroke="grey" points="1102,-521.5 1102,-567.5 1282,-567.5 1282,-521.5 1102,-521.5"/>
<text text-anchor="middle" x="1192" y="-552.3" font-family="Times,serif" font-size="14.00">Recieve picture</text>
<polyline fill="none" stroke="grey" points="1102,-544.5 1282,-544.5 "/>
<text text-anchor="middle" x="1192" y="-529.3" font-family="Times,serif" font-size="14.00">Videostream.__next__()</text>
</a>
</g>
</g>
<!-- c_video_start&#45;&gt;c_video_get_pic -->
<g id="edge22" class="edge">
<title>c_video_start&#45;&gt;c_video_get_pic</title>
<path fill="none" stroke="black" d="M1189.52,-674.24C1191.78,-668.43 1193.84,-662.09 1195,-656 1199.93,-630.08 1198.7,-600.12 1196.51,-577.95"/>
<polygon fill="black" stroke="black" points="1199.95,-577.29 1195.37,-567.74 1193,-578.06 1199.95,-577.29"/>
</g>
<!-- c_worker_dispatch -->
<g id="node19" class="node">
<title>c_worker_dispatch</title>
<g id="a_node19"><a xlink:href="https://lukas-staab.github.io/ball-and-hoop/code/src.ballandhoop.html#src.ballandhoop.hoop.Hoop.find_ball_async" xlink:title="{Dispatch Worker| pool.apply_async()|hoop.find_ball_async()}" target="_blank">
<polygon fill="none" stroke="grey" points="1137.5,-345.5 1137.5,-414.5 1310.5,-414.5 1310.5,-345.5 1137.5,-345.5"/>
<text text-anchor="middle" x="1224" y="-399.3" font-family="Times,serif" font-size="14.00">Dispatch Worker</text>
<polyline fill="none" stroke="grey" points="1137.5,-391.5 1310.5,-391.5 "/>
<text text-anchor="middle" x="1224" y="-376.3" font-family="Times,serif" font-size="14.00">pool.apply_async()</text>
<polyline fill="none" stroke="grey" points="1137.5,-368.5 1310.5,-368.5 "/>
<text text-anchor="middle" x="1224" y="-353.3" font-family="Times,serif" font-size="14.00">hoop.find_ball_async()</text>
</a>
</g>
</g>
<!-- c_video_get_pic&#45;&gt;c_worker_dispatch -->
<g id="edge23" class="edge">
<title>c_video_get_pic&#45;&gt;c_worker_dispatch</title>
<path fill="none" stroke="black" d="M1196.38,-521.25C1201.26,-496.49 1209.25,-455.88 1215.39,-424.71"/>
<polygon fill="black" stroke="black" points="1218.9,-425.03 1217.39,-414.54 1212.03,-423.68 1218.9,-425.03"/>
</g>
<!-- c_find_ball -->
<g id="node16" class="node">
<title>c_find_ball</title>
<g id="a_node16"><a xlink:href="https://lukas-staab.github.io/ball-and-hoop/code/src.ballandhoop.html#src.ballandhoop.hoop.Hoop.find_ball" xlink:title="{Find ball and calc angle in given frame|hoop.find_ball()}" target="_blank">
<polygon fill="none" stroke="grey" points="1077,-169.5 1077,-215.5 1371,-215.5 1371,-169.5 1077,-169.5"/>
<text text-anchor="middle" x="1224" y="-200.3" font-family="Times,serif" font-size="14.00">Find ball and calc angle in given frame</text>
<polyline fill="none" stroke="grey" points="1077,-192.5 1371,-192.5 "/>
<text text-anchor="middle" x="1224" y="-177.3" font-family="Times,serif" font-size="14.00">hoop.find_ball()</text>
</a>
</g>
</g>
<!-- c_find_ball&#45;&gt;c_network_send -->
<g id="edge20" class="edge">
<title>c_find_ball&#45;&gt;c_network_send</title>
<path fill="none" stroke="black" d="M1212.12,-169.4C1201.34,-149.35 1185.15,-119.24 1171.87,-94.53"/>
<polygon fill="black" stroke="black" points="1174.94,-92.86 1167.12,-85.71 1168.77,-96.17 1174.94,-92.86"/>
</g>
<!-- c_network_send&#45;&gt;s_network_receive -->
<g id="edge30" class="edge">
<title>c_network_send:send&#45;&gt;s_network_receive</title>
<path fill="none" stroke="black" d="M1303,-28C1423.15,-28 1448.11,-142.29 1380,-216 1331.89,-268.06 856.82,-277.49 660.36,-279.16"/>
<polygon fill="black" stroke="black" points="660.06,-275.66 650.08,-279.24 660.11,-282.66 660.06,-275.66"/>
</g>
<!-- c_workerpool&#45;&gt;c_worker_dispatch -->
<g id="edge18" class="edge">
<title>c_workerpool&#45;&gt;c_worker_dispatch</title>
<path fill="none" stroke="black" d="M1295.93,-597.63C1297.07,-577.33 1297.25,-546.73 1291,-521 1282.6,-486.42 1265.03,-450.26 1250,-423.35"/>
<polygon fill="black" stroke="black" points="1253,-421.55 1245.01,-414.59 1246.92,-425.02 1253,-421.55"/>
</g>
<!-- c_worker_dispatch&#45;&gt;c_find_ball -->
<g id="edge19" class="edge">
<title>c_worker_dispatch&#45;&gt;c_find_ball</title>
<path fill="none" stroke="black" d="M1224,-345.41C1224,-311.4 1224,-259.17 1224,-225.68"/>
<polygon fill="black" stroke="black" points="1227.5,-225.51 1224,-215.51 1220.5,-225.51 1227.5,-225.51"/>
</g>
<!-- start -->
<g id="node20" class="node">
<title>start</title>
<polygon fill="none" stroke="black" points="786,-1014 739.25,-996 786,-978 832.75,-996 786,-1014"/>
<polyline fill="none" stroke="black" points="750.44,-1000.31 750.44,-991.69 "/>
<polyline fill="none" stroke="black" points="774.8,-982.31 797.2,-982.31 "/>
<polyline fill="none" stroke="black" points="821.56,-991.69 821.56,-1000.31 "/>
<polyline fill="none" stroke="black" points="797.2,-1009.69 774.8,-1009.69 "/>
<text text-anchor="middle" x="786" y="-992.3" font-family="Times,serif" font-size="14.00">start</text>
</g>
<!-- start&#45;&gt;s_app -->
<g id="edge27" class="edge">
<title>start&#45;&gt;s_app</title>
<path fill="none" stroke="black" d="M757.67,-1003.28C718.59,-1011.96 645.94,-1028.07 584.09,-1041.8"/>
<polygon fill="black" stroke="black" points="583.26,-1038.4 574.26,-1043.98 584.78,-1045.23 583.26,-1038.4"/>
</g>
<!-- start&#45;&gt;c_app -->
<g id="edge26" class="edge">
<title>start&#45;&gt;c_app</title>
<path fill="none" stroke="black" d="M805.39,-985.3C847.4,-964.3 948.76,-913.62 1019.9,-878.05"/>
<polygon fill="black" stroke="black" points="1021.47,-881.18 1028.85,-873.58 1018.34,-874.92 1021.47,-881.18"/>
</g>
<!-- l_config -->
<g id="node21" class="node">
<title>l_config</title>
<g id="a_node21"><a xlink:href="https://lukas-staab.github.io/ball-and-hoop/config.html" xlink:title="{Find Hoop and save to config|calibrate.py}" target="_blank">
<polygon fill="none" stroke="grey" points="674,-1141.5 674,-1187.5 898,-1187.5 898,-1141.5 674,-1141.5"/>
<text text-anchor="middle" x="786" y="-1172.3" font-family="Times,serif" font-size="14.00">Find Hoop and save to config</text>
<polyline fill="none" stroke="grey" points="674,-1164.5 898,-1164.5 "/>
<text text-anchor="middle" x="786" y="-1149.3" font-family="Times,serif" font-size="14.00">calibrate.py</text>
</a>
</g>
</g>
<!-- start&#45;&gt;l_config -->
<g id="edge24" class="edge">
<title>start&#45;&gt;l_config</title>
<path fill="none" stroke="black" d="M788.77,-1012.98C789.67,-1018.93 790.56,-1025.75 791,-1032 793.97,-1073.8 794.57,-1086.59 790.92,-1131.2"/>
<polygon fill="black" stroke="black" points="787.43,-1130.97 790.08,-1141.23 794.41,-1131.56 787.43,-1130.97"/>
<text text-anchor="middle" x="822" y="-1063.3" font-family="Times,serif" font-size="14.00">optional</text>
</g>
<!-- start&#45;&gt;l_pid -->
<g id="edge28" class="edge">
<title>start&#45;&gt;l_pid</title>
<path fill="none" stroke="black" d="M786,-977.82C786,-951.17 786,-899.61 786,-867.66"/>
<polygon fill="black" stroke="black" points="789.5,-867.26 786,-857.26 782.5,-867.26 789.5,-867.26"/>
</g>
<!-- l_config&#45;&gt;start -->
<g id="edge25" class="edge">
<title>l_config&#45;&gt;start</title>
<path fill="none" stroke="black" d="M786,-1141.39C786,-1111.19 786,-1057.06 786,-1024.35"/>
<polygon fill="black" stroke="black" points="789.5,-1024.14 786,-1014.14 782.5,-1024.14 789.5,-1024.14"/>
</g>
</g>
</svg>
